<?xml version="1.0" standalone="no"?>
<!DOCTYPE svg PUBLIC "-//W3C//DTD SVG 20010904//EN"
 "http://www.w3.org/TR/2001/REC-SVG-20010904/DTD/svg10.dtd">
<svg version="1.0" xmlns="http://www.w3.org/2000/svg"
 width="16.000000pt" height="16.000000pt" viewBox="0 0 16.000000 16.000000"
 preserveAspectRatio="xMidYMid meet">
<metadata>
Created by potrace 1.11, written by Peter Selinger 2001-2013
</metadata>
<g transform="translate(0.000000,16.000000) scale(0.002315,-0.002315)"
fill="#000000" stroke="none">
<path d="M3170 5760 c-5 -3 -37 -5 -70 -4 -43 2 -58 -1 -53 -9 5 -9 3 -9 -8
-1 -12 9 -34 11 -41 4 -2 -1 -55 -4 -118 -6 -103 -4 -186 -8 -230 -13 -14 -1
-16 -26 -16 -181 0 -99 3 -180 6 -180 9 0 6 -73 -3 -87 -4 -6 -3 -14 2 -17 11
-7 9 -25 -3 -45 -6 -9 -5 -12 1 -8 6 4 10 -13 11 -41 1 -26 3 -90 5 -142 4
-109 2 -119 -21 -115 -9 2 -17 4 -17 5 0 1 -9 3 -20 5 -11 1 -33 6 -50 9 -16
4 -34 8 -40 9 -5 2 -15 6 -21 9 -6 4 -21 6 -33 3 -11 -2 -21 1 -21 6 0 6 -4 8
-9 4 -5 -3 -13 -1 -16 5 -4 6 -15 8 -25 5 -10 -3 -21 -1 -25 5 -3 6 -11 8 -16
4 -5 -3 -16 0 -24 6 -8 6 -19 9 -24 6 -5 -4 -12 -2 -15 3 -4 5 -17 8 -31 6
-14 -1 -28 2 -31 7 -3 4 -10 6 -15 3 -5 -4 -9 -1 -9 5 0 6 -5 8 -10 5 -6 -4
-18 -1 -27 7 -14 11 -16 11 -8 -2 8 -13 7 -13 -8 -1 -9 7 -17 11 -17 7 0 -3
-10 -2 -23 3 -18 7 -26 5 -33 -7 -6 -10 -10 -94 -9 -189 0 -95 -2 -173 -5
-173 -3 0 -5 -39 -5 -87 1 -49 -4 -94 -9 -102 -8 -11 -8 -13 0 -8 8 4 11 -8
10 -38 0 -25 -3 -45 -6 -45 -3 0 -6 -16 -7 -35 0 -23 3 -33 11 -28 8 5 8 3 0
-8 -9 -11 -12 -63 -5 -89 0 -3 71 -6 156 -5 108 0 156 -3 159 -12 3 -6 2 -14
-2 -18 -7 -6 -8 -10 -11 -36 0 -5 -5 -8 -10 -5 -4 3 -7 -6 -5 -19 1 -14 -4
-32 -12 -40 -8 -8 -14 -18 -14 -22 1 -4 -2 -17 -6 -28 -3 -11 -7 -22 -8 -25
-1 -3 -9 -27 -19 -55 -22 -60 -29 -79 -27 -83 0 -1 -7 -16 -15 -32 -9 -17 -13
-34 -10 -39 2 -5 -2 -11 -10 -15 -8 -3 -12 -12 -9 -21 3 -8 1 -15 -5 -15 -6 0
-10 -3 -9 -7 2 -11 -13 -66 -22 -78 -7 -10 -34 -84 -35 -97 0 -3 -3 -10 -7
-14 -5 -4 -8 -15 -8 -25 0 -10 -6 -24 -13 -31 -7 -7 -12 -20 -12 -28 1 -8 -3
-24 -9 -35 -5 -11 -11 -25 -12 -31 -5 -29 -16 -54 -24 -54 -5 0 -7 -9 -5 -20
2 -11 0 -20 -5 -20 -8 0 -24 -52 -20 -65 1 -3 -6 -17 -14 -31 -9 -13 -14 -24
-11 -24 3 0 -1 -13 -9 -29 -9 -16 -12 -31 -9 -35 4 -3 1 -6 -6 -6 -7 0 -9 -4
-6 -10 3 -5 1 -10 -5 -10 -6 0 -8 -5 -5 -10 4 -6 2 -16 -3 -23 -6 -7 -16 -32
-23 -57 -7 -25 -16 -49 -19 -55 -8 -11 -19 -54 -19 -69 1 -5 -4 -12 -11 -16
-6 -4 -13 -16 -15 -26 -2 -10 -4 -20 -5 -21 -2 -2 -4 -7 -5 -13 -1 -5 -3 -11
-5 -12 -1 -2 -3 -12 -5 -23 -2 -11 -9 -21 -15 -23 -5 -2 -8 -8 -5 -13 4 -5 -1
-6 -9 -3 -9 3 -16 12 -16 20 0 8 -5 14 -11 14 -5 0 -8 4 -4 9 3 5 -2 16 -10
24 -8 9 -15 20 -15 25 0 5 -7 15 -15 22 -8 7 -12 16 -9 21 3 5 0 9 -5 9 -6 0
-11 7 -11 15 0 8 -5 15 -11 15 -5 0 -8 4 -5 8 3 5 -8 28 -24 52 -16 24 -27 47
-24 52 3 4 1 8 -4 8 -5 0 -15 13 -22 30 -7 17 -16 30 -21 30 -5 0 -9 9 -9 19
0 10 -7 21 -15 25 -8 3 -15 9 -14 13 3 20 -2 34 -11 28 -6 -3 -7 1 -4 9 3 9 1
16 -5 16 -6 0 -11 7 -11 15 0 8 -5 15 -11 15 -5 0 -7 5 -4 10 3 6 1 10 -6 10
-7 0 -9 3 -6 6 4 4 -2 19 -13 34 -10 14 -20 33 -22 40 -2 8 -11 23 -20 34 -10
11 -18 26 -18 33 0 7 -4 13 -10 13 -5 0 -10 8 -10 18 0 10 -9 28 -21 40 -11
12 -17 27 -14 32 3 6 -1 10 -10 10 -9 0 -14 4 -10 9 3 5 -1 16 -9 24 -8 8 -12
17 -9 21 4 3 1 6 -6 6 -7 0 -11 6 -8 13 2 6 -5 20 -15 29 -11 9 -19 19 -19 22
2 17 -1 24 -18 43 -11 11 -21 29 -23 39 -2 11 -11 28 -21 38 -9 11 -17 28 -17
38 0 11 -5 16 -10 13 -6 -3 -10 2 -10 12 0 10 -9 29 -20 43 -11 14 -20 31 -20
38 0 6 -4 12 -10 12 -5 0 -10 7 -10 15 0 8 -5 15 -10 15 -6 0 -9 3 -8 8 0 4
-6 22 -14 41 -13 30 -14 37 -2 48 8 8 18 12 23 9 5 -3 12 1 15 9 3 8 9 15 13
14 16 -2 53 14 53 23 0 5 4 6 10 3 5 -3 21 2 35 11 14 9 25 13 25 10 0 -4 11
1 25 10 14 9 25 12 25 8 1 -5 10 2 21 16 12 14 23 23 25 21 4 -3 18 1 54 13 3
1 15 7 26 14 12 6 24 9 26 6 3 -2 10 1 16 9 9 10 -2 20 -48 46 -33 18 -60 37
-60 43 0 6 -3 8 -7 5 -3 -4 -17 0 -30 8 -13 9 -23 12 -23 8 0 -5 -4 -3 -8 3
-8 12 -79 56 -129 79 -18 8 -33 19 -33 23 0 7 -64 36 -66 30 0 -2 -8 4 -17 12
-36 33 -47 40 -62 40 -8 0 -15 4 -15 9 0 4 -22 19 -50 32 -27 13 -50 27 -50
30 0 4 -11 10 -25 13 -14 4 -23 11 -20 16 3 5 0 7 -7 5 -8 -3 -23 3 -35 14
-11 11 -23 18 -26 15 -2 -2 -10 2 -17 11 -7 8 -19 15 -26 15 -8 0 -14 4 -14 8
0 5 -16 14 -35 22 -19 8 -35 17 -35 22 0 4 -7 8 -15 8 -8 0 -15 5 -15 11 0 5
-4 8 -8 5 -5 -3 -19 4 -30 15 -12 11 -22 17 -22 13 0 -4 -8 0 -17 8 -10 8 -42
28 -70 43 -29 16 -53 33 -53 38 0 6 -3 7 -7 4 -3 -4 -21 3 -40 14 -18 11 -33
16 -33 10 0 -18 -2 -25 -16 -61 -7 -19 -16 -48 -19 -65 -6 -32 -12 -57 -15
-65 -1 -3 -3 -9 -5 -15 -1 -5 -3 -12 -4 -15 -3 -6 -9 -35 -16 -70 -5 -30 -13
-63 -15 -70 -1 -3 -3 -9 -5 -15 -1 -5 -3 -12 -4 -15 -2 -3 -4 -12 -6 -20 -2
-8 -6 -28 -10 -45 -3 -16 -7 -36 -7 -42 -1 -7 -4 -13 -8 -13 -3 0 -6 -8 -6
-17 -1 -10 -4 -31 -8 -48 -4 -16 -8 -37 -8 -45 0 -8 -5 -20 -10 -27 -5 -7 -7
-17 -4 -22 4 -5 2 -12 -4 -16 -6 -4 -8 -11 -5 -16 4 -5 3 -15 -2 -21 -4 -7 -8
-17 -9 -23 -1 -5 -9 -39 -19 -75 -9 -36 -19 -76 -21 -89 -3 -13 -9 -31 -13
-40 -5 -9 -6 -22 -4 -28 3 -7 1 -13 -4 -13 -6 0 -9 -10 -8 -22 1 -13 0 -27 -4
-33 -3 -5 -6 -12 -6 -15 -8 -48 -30 -128 -39 -139 -9 -12 -8 -13 4 -6 12 7 13
6 2 -7 -6 -8 -14 -28 -16 -44 -3 -16 -7 -40 -10 -53 -5 -22 -3 -23 32 -17 21
3 53 13 71 22 17 9 40 17 49 19 9 2 18 4 20 5 1 2 7 4 12 5 6 1 12 4 15 5 3 1
10 4 15 5 6 1 12 4 15 5 3 1 8 3 13 4 4 1 13 5 20 9 6 5 17 5 22 2 6 -3 10 -1
10 5 0 6 4 9 9 6 5 -4 11 -2 13 4 1 5 14 11 28 14 14 2 27 5 30 6 3 2 8 2 13
1 4 0 7 4 7 11 0 6 3 9 6 5 3 -3 16 -2 28 2 23 9 46 -7 46 -34 0 -8 5 -15 11
-15 6 0 8 -7 5 -15 -3 -9 1 -18 9 -21 8 -4 15 -12 15 -20 0 -14 19 -54 31 -64
3 -3 11 -21 19 -40 7 -19 20 -43 28 -52 8 -9 11 -22 6 -29 -4 -7 -3 -10 3 -6
10 6 59 -89 55 -105 -1 -5 2 -8 6 -8 5 0 21 -27 37 -60 16 -33 32 -60 37 -60
4 0 5 -7 2 -15 -4 -8 -1 -15 5 -15 6 0 11 -7 11 -15 0 -8 4 -15 10 -15 5 0 9
-3 8 -7 -2 -11 24 -66 35 -74 5 -3 9 -9 8 -12 -1 -15 22 -67 29 -67 4 0 10 -9
13 -20 8 -31 9 -33 29 -65 10 -16 21 -38 24 -47 4 -10 10 -18 13 -18 4 0 8 -6
8 -13 0 -6 11 -31 26 -53 14 -23 23 -45 20 -48 -4 -3 -1 -6 6 -6 7 0 10 -4 7
-8 -3 -5 7 -26 21 -47 14 -21 19 -35 12 -31 -8 4 -3 -2 11 -14 14 -12 24 -25
23 -29 -5 -12 9 -41 19 -41 6 0 8 -3 5 -7 -4 -3 0 -17 8 -30 9 -13 12 -23 8
-23 -5 0 0 -5 10 -11 9 -6 15 -14 12 -20 -4 -5 -1 -9 5 -9 6 0 8 -5 5 -10 -3
-6 -1 -10 5 -10 7 0 10 -7 6 -15 -3 -8 -2 -15 2 -15 4 0 22 -31 41 -70 18 -38
37 -70 42 -70 5 0 8 -3 7 -7 -3 -11 64 -146 77 -155 5 -4 6 -10 3 -14 -4 -3 0
-13 8 -21 8 -8 12 -19 9 -24 -4 -5 -1 -9 4 -9 9 0 38 -54 41 -78 1 -4 8 -14
16 -23 8 -9 11 -19 7 -22 -3 -4 -1 -7 5 -7 7 0 12 -6 12 -14 0 -7 7 -19 15
-26 8 -6 14 -15 13 -18 -3 -12 37 -92 45 -92 4 0 6 -3 3 -8 -6 -11 316 -9 333
2 9 6 12 5 8 -1 -5 -7 9 -10 41 -8 26 2 47 4 47 5 0 1 24 3 53 4 32 2 52 -2
52 -8 0 -8 3 -8 8 0 8 12 142 13 142 1 0 -15 46 26 46 42 2 35 16 86 23 89 5
2 7 12 4 22 -4 15 0 20 13 21 11 0 14 3 7 5 -8 4 -9 13 -3 29 5 12 6 26 3 29
-4 3 -1 6 6 6 7 0 10 4 6 9 -3 5 -1 12 4 16 5 3 10 13 9 23 0 20 7 48 20 82
11 30 12 33 12 66 0 14 4 23 8 20 4 -2 9 4 10 15 4 43 6 49 14 49 5 0 6 5 3
10 -4 6 -2 16 3 23 5 7 10 20 11 30 1 9 2 26 3 37 1 11 6 20 11 20 5 0 7 6 4
13 -2 6 0 21 6 32 9 18 16 47 19 83 1 6 6 12 11 12 5 0 7 11 5 24 -3 15 0 27
8 30 7 3 11 14 9 26 -2 11 0 20 5 20 5 0 7 9 5 20 -2 11 1 22 6 25 5 4 7 11 4
16 -4 5 -2 9 4 9 6 0 8 7 5 15 -4 8 -1 15 4 15 6 0 9 9 7 20 -2 11 0 20 5 20
4 0 7 11 5 25 -1 14 2 25 7 25 6 0 8 7 4 15 -3 8 -2 15 2 15 4 0 9 12 10 27 1
15 5 29 10 32 6 5 11 24 14 59 1 6 4 12 8 12 4 0 6 11 5 25 -2 14 2 25 8 25 5
0 7 3 4 6 -3 4 -2 14 3 24 5 9 12 32 15 50 3 18 9 38 12 44 4 5 8 24 10 40 2
17 7 32 11 35 8 7 11 18 15 59 2 15 7 33 11 40 7 12 18 56 19 80 0 6 5 12 10
12 5 0 7 6 4 14 -3 8 1 22 9 33 9 10 13 12 9 6 -3 -7 -1 -13 5 -13 7 0 9 -8 5
-20 -3 -11 -2 -20 3 -20 5 0 9 -6 9 -12 1 -30 15 -83 22 -88 4 -3 8 -12 9 -20
1 -17 9 -55 12 -55 1 0 4 -16 7 -35 2 -19 8 -37 12 -40 8 -5 11 -18 14 -69 1
-16 5 -27 10 -24 7 4 11 -27 8 -54 -1 -7 3 -13 9 -13 6 0 9 -4 5 -9 -3 -5 -1
-12 3 -15 5 -3 9 -16 8 -28 -1 -13 2 -25 6 -28 3 -3 8 -17 10 -30 2 -14 7 -30
11 -36 4 -7 9 -29 13 -50 3 -22 10 -46 15 -55 4 -9 5 -19 2 -23 -3 -3 -2 -6 4
-6 5 0 9 -10 8 -22 -1 -13 2 -32 8 -43 6 -11 12 -33 14 -49 2 -17 9 -34 16
-38 6 -4 9 -8 5 -8 -4 0 2 -29 12 -64 10 -36 16 -67 12 -70 -3 -3 1 -6 8 -6 7
0 11 -3 8 -6 -4 -3 -2 -20 4 -37 5 -18 11 -44 14 -59 6 -43 9 -53 16 -59 4 -3
9 -18 11 -35 2 -16 10 -49 17 -74 6 -25 12 -47 12 -50 0 -3 4 -12 9 -21 8 -16
21 -71 22 -96 0 -7 3 -13 7 -13 4 0 7 -6 8 -12 2 -23 7 -43 15 -55 5 -7 6 -17
3 -22 -3 -5 1 -25 9 -44 8 -19 11 -37 8 -41 -4 -3 -1 -6 5 -6 6 0 9 -9 7 -20
-2 -11 1 -20 7 -20 5 0 8 -7 5 -15 -4 -8 -2 -17 3 -20 5 -3 7 -12 3 -20 -3 -8
-1 -15 4 -15 5 0 10 -8 11 -17 2 -25 8 -45 17 -66 4 -9 5 -26 2 -37 -3 -11 -1
-23 4 -26 5 -3 6 -10 3 -16 -4 -6 -2 -8 3 -5 6 4 13 -5 15 -21 3 -15 9 -36 13
-46 7 -15 5 -17 -6 -11 -11 7 -11 5 1 -9 8 -10 15 -24 15 -30 1 -6 4 -18 6
-26 25 -70 39 -122 34 -129 -3 -5 0 -11 6 -13 6 -2 12 -16 12 -31 0 -29 23
-38 33 -12 4 8 13 15 21 15 8 0 11 5 8 10 -3 6 1 10 10 10 9 0 14 4 11 9 -3 5
9 18 27 30 17 11 28 21 24 21 -10 0 6 16 47 48 16 12 26 22 22 22 -3 0 2 9 11
20 10 11 24 20 32 20 8 0 12 3 9 6 -4 3 12 23 34 45 22 21 36 39 32 39 -5 1 2
7 16 15 14 8 22 14 19 15 -11 0 68 80 79 80 7 0 12 5 12 12 0 6 17 28 38 48
20 20 58 60 85 88 26 29 52 52 57 52 6 0 10 5 10 10 0 6 34 44 75 85 41 41 75
79 75 85 0 6 5 8 10 5 6 -3 10 -2 10 4 0 12 150 161 162 161 4 0 7 3 6 8 -2 4
5 18 15 32 9 13 17 20 18 15 0 -6 4 0 9 13 5 12 17 22 25 22 9 0 14 4 10 9 -3
5 4 13 16 16 11 4 18 9 15 12 -3 3 1 12 9 19 12 12 18 11 39 -11 14 -14 26
-29 26 -34 0 -4 13 -22 30 -41 16 -18 27 -37 24 -41 -3 -5 2 -9 10 -9 15 0 42
-38 38 -52 -1 -4 7 -10 18 -13 11 -4 20 -13 20 -21 0 -8 4 -14 9 -14 5 0 30
-20 57 -45 26 -25 51 -45 56 -45 4 0 8 -8 8 -17 0 -14 2 -15 9 -4 7 11 10 9
16 -8 3 -11 13 -21 21 -21 8 0 14 -4 14 -10 0 -5 7 -10 15 -10 8 0 15 -4 15
-10 0 -5 9 -10 20 -10 11 0 20 -7 20 -15 0 -8 5 -16 10 -16 6 -1 14 -2 19 -3
5 0 20 -10 33 -21 14 -11 31 -21 39 -23 7 -2 16 -7 19 -10 3 -4 14 -9 25 -10
11 -2 22 -7 25 -12 6 -9 123 -51 150 -53 11 -1 20 -4 20 -8 0 -4 11 -6 25 -4
14 1 28 -1 30 -6 6 -9 -2 -8 178 -12 75 -1 137 1 137 4 0 4 11 6 25 4 14 -1
25 1 25 5 0 5 8 6 18 3 10 -2 31 3 47 11 15 8 32 13 37 10 5 -3 15 0 23 6 8 6
19 9 25 5 5 -3 10 -1 10 6 0 7 3 10 6 6 4 -3 24 3 45 13 21 11 44 20 52 20 7
0 23 9 34 19 12 11 24 17 27 14 3 -4 6 0 6 7 0 7 3 10 6 7 4 -4 20 3 37 15 19
13 28 16 23 7 -4 -7 -1 -6 7 4 8 9 19 17 25 17 6 0 15 6 19 14 4 8 17 16 28
18 11 1 28 13 38 26 10 12 25 22 33 22 8 0 14 5 14 11 0 5 5 7 10 4 6 -3 10
-1 10 5 0 5 15 19 33 30 17 11 28 20 22 20 -5 0 -4 4 4 9 15 10 54 -17 45 -31
-3 -4 3 -8 12 -8 10 0 15 -3 11 -6 -6 -6 10 -27 60 -80 18 -19 29 -34 25 -34
-4 0 6 -11 22 -25 16 -14 25 -25 20 -25 -5 0 0 -7 10 -15 11 -8 16 -15 11 -15
-5 0 1 -7 13 -16 12 -8 19 -21 16 -27 -4 -7 -4 -9 1 -5 4 4 15 0 24 -10 24
-26 44 -21 48 12 2 16 9 38 14 48 5 10 7 23 4 28 -3 6 -1 10 5 10 6 0 9 4 5 9
-3 5 -1 12 5 16 6 4 8 10 5 15 -3 5 -1 11 5 15 6 4 8 11 4 16 -3 5 0 16 6 24
7 8 10 15 6 15 -3 0 0 15 8 34 8 19 12 37 8 40 -3 3 0 6 6 6 6 0 9 9 7 20 -2
11 -1 20 3 20 7 0 11 16 14 58 1 6 4 12 8 12 4 0 7 6 8 13 1 6 4 23 6 37 2 14
5 29 5 33 1 5 5 6 10 2 6 -3 8 6 5 20 -3 15 0 25 7 25 6 0 9 9 6 20 -3 10 -1
20 4 22 5 2 10 12 12 23 1 11 6 26 10 33 5 6 6 12 2 12 -3 0 -1 8 4 18 6 11
13 32 16 48 7 35 7 35 31 109 10 33 19 65 20 70 0 6 6 22 12 36 6 15 12 35 14
45 2 11 7 22 12 26 5 3 2 18 -8 33 -12 18 -21 23 -29 17 -7 -6 -25 -8 -42 -5
-16 2 -75 6 -130 9 -183 8 -230 11 -235 14 -3 2 -32 4 -65 6 -70 4 -172 11
-270 20 -38 3 -92 6 -120 6 -27 1 -53 6 -57 12 -5 8 -8 7 -8 -1 0 -9 -7 -10
-24 -3 -13 5 -32 7 -42 5 -11 -2 -22 -4 -25 -4 -15 -2 5 -51 22 -56 11 -4 17
-10 15 -14 -3 -4 4 -15 15 -24 11 -10 17 -22 14 -27 -3 -5 4 -11 14 -15 12 -4
18 -12 14 -21 -3 -7 0 -14 5 -14 6 0 32 -29 57 -65 26 -36 51 -65 56 -65 6 0
7 -4 4 -10 -3 -5 6 -21 20 -34 l27 -25 -35 -35 c-19 -19 -37 -33 -40 -30 -2 2
-10 -2 -17 -11 -7 -8 -19 -15 -26 -15 -8 0 -14 -4 -14 -10 0 -5 -7 -7 -15 -4
-8 4 -15 2 -15 -4 0 -6 -15 -14 -32 -17 -18 -4 -37 -10 -43 -13 -5 -4 -14 -7
-20 -9 -5 -1 -21 -4 -35 -8 -43 -10 -170 -13 -175 -4 -3 4 -12 6 -20 3 -8 -3
-20 -2 -27 2 -7 5 -22 10 -33 11 -11 2 -24 8 -29 13 -6 6 -20 10 -33 10 -13 0
-23 5 -23 11 0 5 -4 8 -9 4 -5 -3 -12 -1 -16 5 -3 5 -15 10 -26 10 -10 0 -19
7 -19 15 0 8 -3 14 -7 13 -12 -3 -56 23 -70 41 -7 9 -13 13 -13 10 0 -11 -130
120 -130 131 0 6 -4 8 -10 5 -5 -3 -10 1 -10 9 0 9 -6 16 -14 16 -8 0 -18 5
-22 12 -5 7 -2 9 7 4 8 -4 6 -1 -3 7 -10 8 -15 17 -11 20 3 4 -1 7 -10 7 -10
0 -17 7 -17 15 0 9 -7 18 -15 21 -8 4 -12 10 -9 15 3 5 0 9 -7 9 -7 0 -10 3
-6 6 3 4 0 13 -8 20 -19 19 -9 43 21 50 13 3 21 10 19 15 -3 5 6 11 20 15 13
3 22 10 19 15 -3 5 3 12 12 16 17 6 42 24 69 51 8 6 18 12 24 12 5 0 15 8 20
18 6 9 11 13 11 8 0 -4 9 2 20 15 10 13 19 21 20 17 0 -4 9 0 19 9 11 9 17 21
14 26 -3 6 -1 7 5 3 7 -4 12 -2 12 4 0 6 4 9 9 5 5 -3 16 4 24 15 7 11 17 17
20 13 4 -3 7 1 7 11 0 9 5 14 10 11 6 -3 13 1 16 9 3 9 10 14 14 11 4 -3 11 2
14 11 3 8 10 12 16 9 5 -3 10 1 10 9 0 9 7 16 15 16 8 0 15 5 15 10 0 6 5 10
11 10 7 0 22 11 35 25 13 14 26 25 30 25 4 0 14 9 23 19 10 11 23 21 31 23 7
2 28 18 46 36 18 17 40 32 49 32 9 0 13 5 10 10 -3 6 -2 10 4 10 5 0 21 10 36
23 15 12 37 31 50 42 43 36 88 70 94 70 3 0 21 15 39 33 19 17 38 30 42 27 5
-3 12 4 15 16 4 11 9 18 12 15 3 -3 14 5 25 17 11 12 16 15 12 7 -4 -8 6 0 23
18 16 17 33 32 37 32 4 0 13 6 21 13 7 6 28 23 46 37 49 37 89 80 89 96 0 8
-3 14 -7 14 -10 0 -33 49 -33 68 0 7 -4 11 -8 8 -5 -3 -17 15 -27 40 -10 24
-25 50 -33 56 -15 13 -36 58 -33 71 1 5 -3 6 -9 2 -5 -3 -14 5 -20 19 -5 14
-14 26 -20 26 -5 0 -10 9 -10 21 0 11 -4 17 -10 14 -5 -3 -10 0 -10 7 0 11
-29 49 -87 113 -10 11 -17 23 -15 28 1 4 -2 7 -6 7 -13 0 -152 139 -152 151 0
6 -4 8 -9 4 -5 -3 -21 6 -35 20 -14 14 -30 25 -36 25 -5 0 -10 5 -10 10 0 6
-7 10 -15 10 -8 0 -15 7 -15 15 0 8 -3 14 -7 13 -13 -3 -53 13 -53 22 0 8 -38
23 -52 21 -5 -1 -8 4 -8 10 0 5 -4 7 -10 4 -5 -3 -10 -1 -10 5 0 6 -4 8 -10 5
-5 -3 -10 -2 -10 4 0 6 -7 8 -15 5 -8 -4 -15 -1 -15 6 0 6 -5 8 -11 5 -6 -4
-17 1 -25 11 -9 11 -12 12 -8 4 7 -13 5 -13 -8 -2 -15 12 -44 20 -95 27 -13 1
-30 8 -40 16 -9 8 -14 9 -11 4 4 -7 -15 -11 -52 -11 -34 0 -56 4 -53 10 4 5 1
6 -8 0 -8 -4 -34 -9 -59 -10 -25 -1 -61 -5 -80 -9 -19 -4 -43 -7 -52 -8 -10
-1 -18 -6 -18 -11 0 -5 -3 -6 -7 -3 -3 4 -11 3 -17 -2 -7 -6 -25 -12 -41 -15
-15 -3 -31 -9 -34 -13 -3 -4 -15 -10 -26 -11 -11 -2 -23 -8 -26 -14 -3 -5 -16
-10 -27 -11 -12 -1 -22 -5 -22 -9 0 -4 -7 -8 -15 -8 -8 0 -15 -5 -15 -10 0 -6
-3 -9 -7 -8 -13 3 -99 -40 -112 -56 -8 -9 -17 -14 -21 -11 -4 3 -13 -2 -20
-10 -7 -8 -19 -15 -27 -15 -7 0 -16 -7 -19 -15 -4 -8 -10 -12 -15 -9 -5 3 -12
-2 -15 -10 -3 -9 -10 -13 -15 -11 -4 3 -14 -3 -21 -15 -7 -11 -21 -20 -32 -20
-11 0 -16 -3 -13 -7 4 -3 -11 -18 -33 -33 -21 -14 -51 -39 -65 -55 -14 -17
-25 -26 -25 -21 0 5 -10 -4 -22 -20 -30 -39 -48 -57 -48 -48 0 4 -11 -10 -25
-30 -14 -20 -25 -41 -25 -46 0 -4 -4 -10 -8 -12 -14 -6 -71 -95 -65 -102 4 -3
2 -6 -4 -6 -6 0 -13 -10 -17 -22 -3 -13 -6 -25 -7 -28 -1 -3 -10 -17 -21 -32
-10 -16 -17 -32 -14 -37 4 -5 1 -11 -5 -13 -6 -2 -12 -18 -14 -35 -1 -17 -6
-36 -10 -43 -7 -12 -15 -66 -16 -113 0 -10 -5 -15 -11 -11 -7 5 -8 2 -3 -7 5
-7 10 -68 12 -134 3 -110 8 -180 13 -180 1 0 4 -11 6 -25 7 -44 9 -55 18 -69
7 -10 6 -12 -4 -6 -9 6 -8 1 3 -14 8 -13 13 -30 10 -37 -3 -8 -1 -14 5 -14 5
0 13 -17 17 -37 3 -21 13 -48 21 -60 13 -20 11 -25 -17 -58 -17 -19 -28 -35
-25 -35 4 0 -4 -11 -18 -24 -15 -13 -26 -28 -26 -34 0 -6 -9 -13 -20 -17 -11
-3 -19 -9 -19 -13 3 -20 -2 -32 -11 -27 -5 3 -10 0 -10 -8 0 -8 -13 -28 -29
-45 -16 -16 -27 -32 -24 -35 2 -3 -5 -8 -16 -12 -12 -3 -19 -10 -17 -14 3 -4
-6 -19 -20 -34 -14 -15 -22 -27 -19 -27 5 0 -8 -15 -78 -88 -12 -12 -18 -22
-14 -22 4 0 -3 -11 -15 -25 -52 -58 -58 -65 -52 -65 3 0 -4 -9 -17 -20 -13
-10 -20 -19 -15 -20 5 0 -3 -11 -18 -25 -14 -13 -26 -27 -26 -30 0 -13 -28
-34 -35 -27 -5 4 -5 -1 -2 -11 5 -13 3 -17 -5 -15 -7 3 -14 10 -14 16 -1 7 -2
13 -4 15 -4 4 -19 243 -23 350 -1 37 -4 67 -7 67 -5 0 -7 39 -13 193 -1 37 -4
67 -7 67 -3 0 -7 28 -8 63 -1 34 -3 101 -4 150 -2 48 -5 87 -8 87 -3 0 -6 27
-6 61 0 42 -4 63 -14 69 -8 6 -10 10 -4 10 11 0 11 69 -1 215 -3 39 -6 105 -7
148 -1 42 -4 77 -8 77 -3 0 -7 21 -7 48 -1 26 -3 77 -6 114 -2 43 0 69 7 72 7
3 6 5 -2 5 -7 1 -10 6 -7 11 3 6 1 10 -5 10 -6 0 -8 14 -6 36 5 35 16 60 16
35 0 -7 5 -9 10 -6 6 3 10 2 10 -3 0 -5 7 -9 15 -10 8 -1 22 -3 30 -4 8 -1 15
-5 15 -9 0 -4 15 -11 32 -15 18 -3 42 -13 54 -20 11 -8 24 -11 27 -7 4 3 7 0
7 -7 0 -7 3 -11 6 -7 4 3 19 0 33 -8 15 -7 32 -10 37 -7 6 4 9 161 9 412 0
353 -2 405 -15 405 -8 0 -21 4 -29 9 -9 6 -12 5 -8 -1 4 -7 -6 -13 -26 -16
-28 -5 -65 -12 -117 -22 -8 -2 -15 -4 -15 -6 0 -1 -11 -3 -25 -4 -14 -2 -38
-6 -55 -10 -16 -5 -38 -8 -47 -9 -10 0 -18 -4 -18 -8 0 -4 -10 -5 -21 -3 -12
3 -27 1 -33 -2 -6 -4 -25 -7 -42 -8 -31 0 -31 0 -29 46 1 25 4 50 7 55 3 5 4
33 3 62 0 28 3 52 7 52 5 0 6 11 4 24 -2 13 -1 27 2 31 6 6 13 74 13 143 0 17
3 32 7 32 4 0 8 17 9 38 3 81 7 122 13 122 3 0 6 17 7 38 2 49 10 127 13 127
3 0 7 40 11 92 1 20 6 30 13 26 6 -3 3 2 -6 12 -13 14 -34 19 -88 20 -39 0
-75 -2 -80 -5z m2063 -1762 c11 1 15 -4 10 -11 -5 -9 -3 -9 8 -2 12 9 34 11
49 5 3 -1 18 -4 35 -6 16 -3 32 -9 35 -13 3 -4 14 -7 25 -8 11 0 33 -5 48 -11
16 -7 33 -12 38 -12 5 0 9 -5 9 -11 0 -5 5 -7 10 -4 6 3 16 3 23 -2 6 -4 16
-8 21 -8 5 0 10 -8 12 -17 1 -10 -2 -18 -7 -18 -13 0 -92 -52 -101 -66 -4 -6
-21 -17 -38 -24 -16 -7 -30 -16 -30 -21 0 -9 -40 -24 -55 -20 -5 1 -7 -1 -3
-5 8 -7 -28 -44 -43 -44 -4 0 -20 -11 -34 -25 -14 -14 -25 -21 -25 -15 0 5
-15 -4 -32 -21 -18 -17 -46 -38 -63 -46 -16 -9 -35 -22 -43 -29 -7 -8 -20 -14
-28 -14 -8 0 -12 -5 -9 -10 4 -6 -7 -15 -24 -21 -17 -6 -31 -15 -31 -21 0 -5
-4 -6 -10 -3 -5 3 -10 1 -10 -5 0 -6 -15 -17 -32 -25 -18 -8 -29 -14 -24 -15
5 0 -20 -19 -55 -42 -35 -24 -67 -47 -71 -53 -8 -12 -19 12 -22 52 -1 15 -5
33 -9 40 -4 6 -3 14 3 18 6 4 7 12 3 18 -10 16 -12 97 -2 97 4 0 7 15 7 33 -1
17 2 46 7 62 4 17 8 40 9 53 0 12 4 22 9 22 4 0 6 3 5 8 -4 11 26 72 35 72 5
0 6 4 3 8 -8 13 75 94 120 117 21 11 41 22 44 25 3 3 15 5 28 4 12 -1 22 2 22
6 0 4 18 6 40 5 23 -1 43 2 45 6 3 4 22 5 43 2 20 -3 45 -5 55 -5z"/>
</g>
</svg>
